<?xml version="1.0" encoding="UTF-8"?>
<!-- Do not edit this file with editors other than draw.io -->
<!DOCTYPE svg PUBLIC "-//W3C//DTD SVG 1.1//EN" "http://www.w3.org/Graphics/SVG/1.1/DTD/svg11.dtd">
<svg xmlns="http://www.w3.org/2000/svg" style="background: #ffffff; background-color: light-dark(#ffffff, var(--ge-dark-color, #121212)); color-scheme: light dark;" xmlns:xlink="http://www.w3.org/1999/xlink" version="1.1" width="265px" height="64px" viewBox="0 0 265 64" content="&lt;mxfile host=&quot;app.diagrams.net&quot; scale=&quot;1&quot; border=&quot;0&quot;&gt;&#10;  &lt;diagram name=&quot;Página-1&quot; id=&quot;KN3OeeBU7RY5kFfi9Hpi&quot;&gt;&#10;    &lt;mxGraphModel dx=&quot;1042&quot; dy=&quot;623&quot; grid=&quot;1&quot; gridSize=&quot;10&quot; guides=&quot;1&quot; tooltips=&quot;1&quot; connect=&quot;1&quot; arrows=&quot;1&quot; fold=&quot;1&quot; page=&quot;1&quot; pageScale=&quot;1&quot; pageWidth=&quot;827&quot; pageHeight=&quot;1169&quot; math=&quot;0&quot; shadow=&quot;0&quot;&gt;&#10;      &lt;root&gt;&#10;        &lt;mxCell id=&quot;0&quot; /&gt;&#10;        &lt;mxCell id=&quot;1&quot; parent=&quot;0&quot; /&gt;&#10;        &lt;object label=&quot;&quot; id=&quot;server1&quot;&gt;&#10;          &lt;mxCell parent=&quot;1&quot; style=&quot;strokeColor=#ffffff;sketch=0;html=1;pointerEvents=1;dashed=0;fillColor=#036897;strokeWidth=2;verticalLabelPosition=bottom;verticalAlign=top;align=center;outlineConnect=0;shape=mxgraph.cisco.servers.fileserver;&quot; vertex=&quot;1&quot;&gt;&#10;            &lt;mxGeometry height=&quot;62&quot; width=&quot;43&quot; x=&quot;90&quot; y=&quot;150&quot; as=&quot;geometry&quot; /&gt;&#10;          &lt;/mxCell&gt;&#10;        &lt;/object&gt;&#10;        &lt;object label=&quot;&quot; id=&quot;server2&quot;&gt;&#10;          &lt;mxCell parent=&quot;1&quot; style=&quot;strokeColor=#ffffff;sketch=0;html=1;pointerEvents=1;dashed=0;fillColor=#036897;strokeWidth=2;verticalLabelPosition=bottom;verticalAlign=top;align=center;outlineConnect=0;shape=mxgraph.cisco.servers.fileserver;&quot; vertex=&quot;1&quot;&gt;&#10;            &lt;mxGeometry height=&quot;62&quot; width=&quot;43&quot; x=&quot;200&quot; y=&quot;150&quot; as=&quot;geometry&quot; /&gt;&#10;          &lt;/mxCell&gt;&#10;        &lt;/object&gt;&#10;        &lt;object label=&quot;&quot; id=&quot;server3&quot;&gt;&#10;          &lt;mxCell parent=&quot;1&quot; style=&quot;strokeColor=#ffffff;sketch=0;html=1;pointerEvents=1;dashed=0;fillColor=#036897;strokeWidth=2;verticalLabelPosition=bottom;verticalAlign=top;align=center;outlineConnect=0;shape=mxgraph.cisco.servers.fileserver;&quot; vertex=&quot;1&quot;&gt;&#10;            &lt;mxGeometry height=&quot;62&quot; width=&quot;43&quot; x=&quot;310&quot; y=&quot;150&quot; as=&quot;geometry&quot; /&gt;&#10;          &lt;/mxCell&gt;&#10;        &lt;/object&gt;&#10;      &lt;/root&gt;&#10;    &lt;/mxGraphModel&gt;&#10;  &lt;/diagram&gt;&#10;&lt;/mxfile&gt;&#10;"><defs/><rect fill="#ffffff" width="100%" height="100%" x="0" y="0" style="fill: light-dark(#ffffff, var(--ge-dark-color, #121212));"/><g><g data-cell-id="0"><g data-cell-id="1"><g data-cell-id="server1"><g><rect x="1" y="1" width="43" height="62" fill="none" stroke="none" pointer-events="all"/><path d="M 33.38 11.5 L 1 11.5 L 1 63 L 33.38 63 Z M 33.38 63 L 44 53.02 L 44 1 L 11.61 1 L 1 11.5 L 33.38 11.5 L 33.38 63 Z" fill="#036897" stroke="#ffffff" stroke-width="2" stroke-linejoin="round" stroke-miterlimit="10" pointer-events="all" style="fill: light-dark(rgb(3, 104, 151), rgb(92, 179, 220)); stroke: light-dark(rgb(255, 255, 255), rgb(18, 18, 18));"/><rect x="1" y="1" width="0" height="0" fill="none" stroke="#ffffff" stroke-width="2" pointer-events="all" style="stroke: light-dark(rgb(255, 255, 255), rgb(18, 18, 18));"/><path d="M 33.38 11.5 L 44 1 M 1 31.47 L 33.38 31.47 M 1 55.12 L 33.38 55.12 M 8.96 19.38 L 17.98 19.38 M 21.7 22.53 L 21.7 16.23 L 5.24 16.23 L 5.24 22.53 L 21.7 22.53 Z" fill="none" stroke="#ffffff" stroke-width="2" stroke-miterlimit="10" pointer-events="all" style="stroke: light-dark(rgb(255, 255, 255), rgb(18, 18, 18));"/></g></g><g data-cell-id="server2"><g><rect x="111" y="1" width="43" height="62" fill="none" stroke="none" pointer-events="all"/><path d="M 143.38 11.5 L 111 11.5 L 111 63 L 143.38 63 Z M 143.38 63 L 154 53.02 L 154 1 L 121.61 1 L 111 11.5 L 143.38 11.5 L 143.38 63 Z" fill="#036897" stroke="#ffffff" stroke-width="2" stroke-linejoin="round" stroke-miterlimit="10" pointer-events="all" style="fill: light-dark(rgb(3, 104, 151), rgb(92, 179, 220)); stroke: light-dark(rgb(255, 255, 255), rgb(18, 18, 18));"/><rect x="111" y="1" width="0" height="0" fill="none" stroke="#ffffff" stroke-width="2" pointer-events="all" style="stroke: light-dark(rgb(255, 255, 255), rgb(18, 18, 18));"/><path d="M 143.38 11.5 L 154 1 M 111 31.47 L 143.38 31.47 M 111 55.12 L 143.38 55.12 M 118.96 19.38 L 127.98 19.38 M 131.7 22.53 L 131.7 16.23 L 115.24 16.23 L 115.24 22.53 L 131.7 22.53 Z" fill="none" stroke="#ffffff" stroke-width="2" stroke-miterlimit="10" pointer-events="all" style="stroke: light-dark(rgb(255, 255, 255), rgb(18, 18, 18));"/></g></g><g data-cell-id="server3"><g><rect x="221" y="1" width="43" height="62" fill="none" stroke="none" pointer-events="all"/><path d="M 253.38 11.5 L 221 11.5 L 221 63 L 253.38 63 Z M 253.38 63 L 264 53.02 L 264 1 L 231.61 1 L 221 11.5 L 253.38 11.5 L 253.38 63 Z" fill="#036897" stroke="#ffffff" stroke-width="2" stroke-linejoin="round" stroke-miterlimit="10" pointer-events="all" style="fill: light-dark(rgb(3, 104, 151), rgb(92, 179, 220)); stroke: light-dark(rgb(255, 255, 255), rgb(18, 18, 18));"/><rect x="221" y="1" width="0" height="0" fill="none" stroke="#ffffff" stroke-width="2" pointer-events="all" style="stroke: light-dark(rgb(255, 255, 255), rgb(18, 18, 18));"/><path d="M 253.38 11.5 L 264 1 M 221 31.47 L 253.38 31.47 M 221 55.12 L 253.38 55.12 M 228.96 19.38 L 237.98 19.38 M 241.7 22.53 L 241.7 16.23 L 225.24 16.23 L 225.24 22.53 L 241.7 22.53 Z" fill="none" stroke="#ffffff" stroke-width="2" stroke-miterlimit="10" pointer-events="all" style="stroke: light-dark(rgb(255, 255, 255), rgb(18, 18, 18));"/></g></g></g></g></g></svg>