<?xml version="1.0" encoding="UTF-8"?>
<!-- Do not edit this file with editors other than draw.io -->
<!DOCTYPE svg PUBLIC "-//W3C//DTD SVG 1.1//EN" "http://www.w3.org/Graphics/SVG/1.1/DTD/svg11.dtd">
<svg xmlns="http://www.w3.org/2000/svg" style="background: #ffffff; background-color: light-dark(#ffffff, var(--ge-dark-color, #121212)); color-scheme: light dark;" xmlns:xlink="http://www.w3.org/1999/xlink" version="1.1" width="265px" height="463px" viewBox="0 0 265 463" content="&lt;mxfile host=&quot;app.diagrams.net&quot; scale=&quot;1&quot; border=&quot;0&quot;&gt;&#10;  &lt;diagram name=&quot;Página-1&quot; id=&quot;huF2ED_hBAQEdCSMmnMg&quot;&gt;&#10;    &lt;mxGraphModel dx=&quot;1426&quot; dy=&quot;743&quot; grid=&quot;1&quot; gridSize=&quot;10&quot; guides=&quot;1&quot; tooltips=&quot;1&quot; connect=&quot;1&quot; arrows=&quot;1&quot; fold=&quot;1&quot; page=&quot;1&quot; pageScale=&quot;1&quot; pageWidth=&quot;827&quot; pageHeight=&quot;1169&quot; math=&quot;0&quot; shadow=&quot;0&quot;&gt;&#10;      &lt;root&gt;&#10;        &lt;mxCell id=&quot;0&quot; /&gt;&#10;        &lt;mxCell id=&quot;1&quot; parent=&quot;0&quot; /&gt;&#10;        &lt;mxCell id=&quot;SrjY5U5Lp4LGjue5XJBE-1&quot; parent=&quot;1&quot; style=&quot;strokeColor=#ffffff;sketch=0;html=1;pointerEvents=1;dashed=0;fillColor=#036897;strokeWidth=2;verticalLabelPosition=bottom;verticalAlign=top;align=center;outlineConnect=0;shape=mxgraph.cisco.servers.fileserver;&quot; value=&quot;&quot; vertex=&quot;1&quot;&gt;&#10;          &lt;mxGeometry height=&quot;62&quot; width=&quot;43&quot; x=&quot;260&quot; y=&quot;630&quot; as=&quot;geometry&quot; /&gt;&#10;        &lt;/mxCell&gt;&#10;        &lt;mxCell id=&quot;SrjY5U5Lp4LGjue5XJBE-2&quot; parent=&quot;1&quot; style=&quot;strokeColor=#ffffff;sketch=0;html=1;pointerEvents=1;dashed=0;fillColor=#036897;strokeWidth=2;verticalLabelPosition=bottom;verticalAlign=top;align=center;outlineConnect=0;shape=mxgraph.cisco.servers.fileserver;&quot; value=&quot;&quot; vertex=&quot;1&quot;&gt;&#10;          &lt;mxGeometry height=&quot;62&quot; width=&quot;43&quot; x=&quot;370&quot; y=&quot;630&quot; as=&quot;geometry&quot; /&gt;&#10;        &lt;/mxCell&gt;&#10;        &lt;mxCell id=&quot;SrjY5U5Lp4LGjue5XJBE-3&quot; parent=&quot;1&quot; style=&quot;strokeColor=#ffffff;sketch=0;html=1;pointerEvents=1;dashed=0;fillColor=#036897;strokeWidth=2;verticalLabelPosition=bottom;verticalAlign=top;align=center;outlineConnect=0;shape=mxgraph.cisco.servers.fileserver;&quot; value=&quot;&quot; vertex=&quot;1&quot;&gt;&#10;          &lt;mxGeometry height=&quot;62&quot; width=&quot;43&quot; x=&quot;480&quot; y=&quot;630&quot; as=&quot;geometry&quot; /&gt;&#10;        &lt;/mxCell&gt;&#10;        &lt;mxCell id=&quot;SrjY5U5Lp4LGjue5XJBE-8&quot; edge=&quot;1&quot; parent=&quot;1&quot; source=&quot;SrjY5U5Lp4LGjue5XJBE-5&quot; style=&quot;edgeStyle=orthogonalEdgeStyle;rounded=0;orthogonalLoop=1;jettySize=auto;html=1;&quot; target=&quot;SrjY5U5Lp4LGjue5XJBE-3&quot;&gt;&#10;          &lt;mxGeometry relative=&quot;1&quot; as=&quot;geometry&quot; /&gt;&#10;        &lt;/mxCell&gt;&#10;        &lt;mxCell id=&quot;SrjY5U5Lp4LGjue5XJBE-10&quot; edge=&quot;1&quot; parent=&quot;1&quot; source=&quot;SrjY5U5Lp4LGjue5XJBE-5&quot; style=&quot;edgeStyle=orthogonalEdgeStyle;rounded=0;orthogonalLoop=1;jettySize=auto;html=1;&quot; target=&quot;SrjY5U5Lp4LGjue5XJBE-1&quot;&gt;&#10;          &lt;mxGeometry relative=&quot;1&quot; as=&quot;geometry&quot; /&gt;&#10;        &lt;/mxCell&gt;&#10;        &lt;mxCell id=&quot;SrjY5U5Lp4LGjue5XJBE-5&quot; parent=&quot;1&quot; style=&quot;strokeColor=#ffffff;sketch=0;html=1;pointerEvents=1;dashed=0;fillColor=#036897;strokeWidth=2;verticalLabelPosition=bottom;verticalAlign=top;align=center;outlineConnect=0;shape=mxgraph.cisco.routers.router;&quot; value=&quot;&quot; vertex=&quot;1&quot;&gt;&#10;          &lt;mxGeometry height=&quot;40&quot; width=&quot;50.5&quot; x=&quot;366.25&quot; y=&quot;430&quot; as=&quot;geometry&quot; /&gt;&#10;        &lt;/mxCell&gt;&#10;        &lt;mxCell id=&quot;SrjY5U5Lp4LGjue5XJBE-6&quot; parent=&quot;1&quot; style=&quot;image;aspect=fixed;perimeter=ellipsePerimeter;html=1;align=center;shadow=0;dashed=0;spacingTop=3;image=img/lib/active_directory/internet_globe.svg;&quot; value=&quot;&quot; vertex=&quot;1&quot;&gt;&#10;          &lt;mxGeometry height=&quot;50&quot; width=&quot;50&quot; x=&quot;366.25&quot; y=&quot;230&quot; as=&quot;geometry&quot; /&gt;&#10;        &lt;/mxCell&gt;&#10;        &lt;mxCell id=&quot;SrjY5U5Lp4LGjue5XJBE-7&quot; edge=&quot;1&quot; parent=&quot;1&quot; source=&quot;SrjY5U5Lp4LGjue5XJBE-6&quot; style=&quot;edgeStyle=orthogonalEdgeStyle;rounded=0;orthogonalLoop=1;jettySize=auto;html=1;entryX=0.5;entryY=0;entryDx=0;entryDy=0;entryPerimeter=0;&quot; target=&quot;SrjY5U5Lp4LGjue5XJBE-5&quot;&gt;&#10;          &lt;mxGeometry relative=&quot;1&quot; as=&quot;geometry&quot; /&gt;&#10;        &lt;/mxCell&gt;&#10;        &lt;mxCell id=&quot;SrjY5U5Lp4LGjue5XJBE-9&quot; edge=&quot;1&quot; parent=&quot;1&quot; source=&quot;SrjY5U5Lp4LGjue5XJBE-5&quot; style=&quot;edgeStyle=orthogonalEdgeStyle;rounded=0;orthogonalLoop=1;jettySize=auto;html=1;entryX=0.5;entryY=0;entryDx=0;entryDy=0;entryPerimeter=0;&quot; target=&quot;SrjY5U5Lp4LGjue5XJBE-2&quot;&gt;&#10;          &lt;mxGeometry relative=&quot;1&quot; as=&quot;geometry&quot; /&gt;&#10;        &lt;/mxCell&gt;&#10;      &lt;/root&gt;&#10;    &lt;/mxGraphModel&gt;&#10;  &lt;/diagram&gt;&#10;&lt;/mxfile&gt;&#10;"><defs/><rect fill="#ffffff" width="100%" height="100%" x="0" y="0" style="fill: light-dark(#ffffff, var(--ge-dark-color, #121212));"/><g><g data-cell-id="0" id="cell-0" type="root"><g data-cell-id="1" id="cell-1" type="layer"><g data-cell-id="SrjY5U5Lp4LGjue5XJBE-1"><g id="cell-SrjY5U5Lp4LGjue5XJBE-1"><g><rect x="1" y="400" width="43" height="62" fill="none" stroke="none" pointer-events="all"/><path d="M 33.38 410.5 L 1 410.5 L 1 462 L 33.38 462 Z M 33.38 462 L 44 452.02 L 44 400 L 11.61 400 L 1 410.5 L 33.38 410.5 L 33.38 462 Z" fill="#036897" stroke="#ffffff" stroke-width="2" stroke-linejoin="round" stroke-miterlimit="10" pointer-events="all" style="fill: light-dark(rgb(3, 104, 151), rgb(92, 179, 220)); stroke: light-dark(rgb(255, 255, 255), rgb(18, 18, 18));"/><rect x="1" y="400" width="0" height="0" fill="none" stroke="#ffffff" stroke-width="2" pointer-events="all" style="stroke: light-dark(rgb(255, 255, 255), rgb(18, 18, 18));"/><path d="M 33.38 410.5 L 44 400 M 1 430.47 L 33.38 430.47 M 1 454.12 L 33.38 454.12 M 8.96 418.38 L 17.98 418.38 M 21.7 421.53 L 21.7 415.23 L 5.24 415.23 L 5.24 421.53 L 21.7 421.53 Z" fill="none" stroke="#ffffff" stroke-width="2" stroke-miterlimit="10" pointer-events="all" style="stroke: light-dark(rgb(255, 255, 255), rgb(18, 18, 18));"/></g></g></g><g data-cell-id="SrjY5U5Lp4LGjue5XJBE-2"><g id="cell-SrjY5U5Lp4LGjue5XJBE-2"><g><rect x="111" y="400" width="43" height="62" fill="none" stroke="none" pointer-events="all"/><path d="M 143.38 410.5 L 111 410.5 L 111 462 L 143.38 462 Z M 143.38 462 L 154 452.02 L 154 400 L 121.61 400 L 111 410.5 L 143.38 410.5 L 143.38 462 Z" fill="#036897" stroke="#ffffff" stroke-width="2" stroke-linejoin="round" stroke-miterlimit="10" pointer-events="all" style="fill: light-dark(rgb(3, 104, 151), rgb(92, 179, 220)); stroke: light-dark(rgb(255, 255, 255), rgb(18, 18, 18));"/><rect x="111" y="400" width="0" height="0" fill="none" stroke="#ffffff" stroke-width="2" pointer-events="all" style="stroke: light-dark(rgb(255, 255, 255), rgb(18, 18, 18));"/><path d="M 143.38 410.5 L 154 400 M 111 430.47 L 143.38 430.47 M 111 454.12 L 143.38 454.12 M 118.96 418.38 L 127.98 418.38 M 131.7 421.53 L 131.7 415.23 L 115.24 415.23 L 115.24 421.53 L 131.7 421.53 Z" fill="none" stroke="#ffffff" stroke-width="2" stroke-miterlimit="10" pointer-events="all" style="stroke: light-dark(rgb(255, 255, 255), rgb(18, 18, 18));"/></g></g></g><g data-cell-id="SrjY5U5Lp4LGjue5XJBE-3"><g id="cell-SrjY5U5Lp4LGjue5XJBE-3"><g><rect x="221" y="400" width="43" height="62" fill="none" stroke="none" pointer-events="all"/><path d="M 253.38 410.5 L 221 410.5 L 221 462 L 253.38 462 Z M 253.38 462 L 264 452.02 L 264 400 L 231.61 400 L 221 410.5 L 253.38 410.5 L 253.38 462 Z" fill="#036897" stroke="#ffffff" stroke-width="2" stroke-linejoin="round" stroke-miterlimit="10" pointer-events="all" style="fill: light-dark(rgb(3, 104, 151), rgb(92, 179, 220)); stroke: light-dark(rgb(255, 255, 255), rgb(18, 18, 18));"/><rect x="221" y="400" width="0" height="0" fill="none" stroke="#ffffff" stroke-width="2" pointer-events="all" style="stroke: light-dark(rgb(255, 255, 255), rgb(18, 18, 18));"/><path d="M 253.38 410.5 L 264 400 M 221 430.47 L 253.38 430.47 M 221 454.12 L 253.38 454.12 M 228.96 418.38 L 237.98 418.38 M 241.7 421.53 L 241.7 415.23 L 225.24 415.23 L 225.24 421.53 L 241.7 421.53 Z" fill="none" stroke="#ffffff" stroke-width="2" stroke-miterlimit="10" pointer-events="all" style="stroke: light-dark(rgb(255, 255, 255), rgb(18, 18, 18));"/></g></g></g><g data-cell-id="SrjY5U5Lp4LGjue5XJBE-8"><g id="cell-SrjY5U5Lp4LGjue5XJBE-8"><g transform="translate(0.5,0.5)"><path d="M 157.75 220 L 242.5 220 L 242.5 393.63" fill="none" stroke="#000000" stroke-miterlimit="10" pointer-events="stroke" style="stroke: light-dark(rgb(0, 0, 0), rgb(255, 255, 255));"/><path d="M 242.5 398.88 L 239 391.88 L 242.5 393.63 L 246 391.88 Z" fill="#000000" stroke="#000000" stroke-miterlimit="10" pointer-events="all" style="fill: light-dark(rgb(0, 0, 0), rgb(255, 255, 255)); stroke: light-dark(rgb(0, 0, 0), rgb(255, 255, 255));"/></g></g></g><g data-cell-id="SrjY5U5Lp4LGjue5XJBE-10"><g id="cell-SrjY5U5Lp4LGjue5XJBE-10"><g transform="translate(0.5,0.5)"><path d="M 107.25 220 L 22.5 220 L 22.5 393.63" fill="none" stroke="#000000" stroke-miterlimit="10" pointer-events="stroke" style="stroke: light-dark(rgb(0, 0, 0), rgb(255, 255, 255));"/><path d="M 22.5 398.88 L 19 391.88 L 22.5 393.63 L 26 391.88 Z" fill="#000000" stroke="#000000" stroke-miterlimit="10" pointer-events="all" style="fill: light-dark(rgb(0, 0, 0), rgb(255, 255, 255)); stroke: light-dark(rgb(0, 0, 0), rgb(255, 255, 255));"/></g></g></g><g data-cell-id="SrjY5U5Lp4LGjue5XJBE-5"><g id="cell-SrjY5U5Lp4LGjue5XJBE-5"><g><rect x="107.25" y="200" width="50.5" height="40" fill="none" stroke="none" pointer-events="all"/><path d="M 157.75 211.61 C 157.75 218 146.49 223.2 132.49 223.2 C 118.51 223.2 107.25 218 107.25 211.61 C 107.25 228.41 107.25 228.41 107.25 228.41 C 107.25 234.8 118.51 240 132.49 240 C 146.49 240 157.75 234.8 157.75 228.41 Z M 132.49 223.2 C 146.49 223.2 157.75 218 157.75 211.61 C 157.75 205.2 146.49 200 132.49 200 C 118.51 200 107.25 205.2 107.25 211.61 C 107.25 218 118.51 223.2 132.49 223.2 Z" fill="#036897" stroke="#ffffff" stroke-width="2" stroke-linejoin="round" stroke-miterlimit="10" pointer-events="all" style="fill: light-dark(rgb(3, 104, 151), rgb(92, 179, 220)); stroke: light-dark(rgb(255, 255, 255), rgb(18, 18, 18));"/><path d="M 126.7 207.2 L 128.75 210.8 L 120.9 212.81 L 122.61 211.2 L 110.66 208.8 L 113.73 206 L 125.33 208.4 Z M 137.96 216 L 136.25 212.4 L 143.42 210.41 L 142.39 212 L 153.99 214.4 L 151.27 216.8 L 139.32 214.4 Z M 133.87 205.2 L 141.71 202.8 L 142.06 206.4 L 140.01 206 L 136.25 210 L 132.49 209.2 L 136.25 205.6 Z M 130.45 219.6 L 122.94 221.21 L 122.61 216.8 L 124.99 217.61 L 129.09 213.2 L 132.84 214.01 L 128.4 218.81 Z" fill="#ffffff" stroke="none" pointer-events="all" style="fill: light-dark(rgb(255, 255, 255), rgb(18, 18, 18));"/></g></g></g><g data-cell-id="SrjY5U5Lp4LGjue5XJBE-6"><g id="cell-SrjY5U5Lp4LGjue5XJBE-6"><g><g><svg xmlns="http://www.w3.org/2000/svg" width="50" height="50" viewBox="0 0 55.444 55.444" x="107.25" y="0" style="font-family: initial;"><defs><linearGradient id="A" x1="132.351" y1="211.705" x2="131.819" y2="159.606" gradientUnits="userSpaceOnUse"><stop offset="0" stop-color="#fdc125"/><stop offset="1" stop-color="#d03604"/></linearGradient><linearGradient id="B" x1="132.714" y1="211.562" x2="131.29" y2="160.135" gradientUnits="userSpaceOnUse"><stop offset="0" stop-color="#0375fc"/><stop offset="1" stop-color="#f6fbff"/></linearGradient></defs><g transform="translate(-103.625 -158.389)"><path d="M131.3 160.135c14.325 0 25.902 11.58 25.902 25.904a25.88 25.88 0 0 1-25.902 25.902c-14.325 0-25.904-11.577-25.904-25.902s11.58-25.904 25.904-25.904z" fill="url(#B)" paint-order="normal"/><path d="M136 192.573c-2.335 1.39-3.678 1.66-6.108 2.063-2.33.357-5.267.208-8.067-.186l-6.07-1.086-5.373-8.016-3.14-8.352c1.265-5.68 5.016-10.533 11.626-14.433 3.153-1.063 4.744-2.392 10.334-2.83 3.702 1.525 7.256 3.478 10.045 6.772 3.145 3.912 5.09 7.873 4.858 12.247-.168 2.786-1.2 6.228-2.696 8.533-1.52 2.258-2.188 3.312-5.408 5.287z" opacity=".1"/><path d="M151.512 173.576l1.353-.01 1.388 2.33c.47 1.73.632 3.428.91 5.208.237 1.975.124 5.16.094 6.89-.04 1.457-.52 2.393-.9 3.723-.797.402-1.906.7-2.462 1.506l-1.493.015-1.952-1.013-1.494-1.58-.953-2.333c-.01-1.968.277-3.876.467-5.803l2.996-5.497c.572-1.156 1.25-2.278 2.044-3.433zm-5.085-8.673c1.285 1.2 2.434 2.454 3.363 3.754 1.166 1.586 2.282 3.2 2.524 3.95l-3.896-.1-.006 2.295-.756 2.7-1.592.05-1.126-.634-1.368-2.072c-.028-.516.235-1.243.522-1.755l.995-.92.055-3.768zm-2.423-1.567l-2.635 1.884-1.145-2.802-.283 1.496-2.457-.05.045.81-1.355-.003-3.09 1.3-3.85.545-1.57.35-.414-2.382 1.046-1.933-2.502-.277-1.262-1.245c1.84-.658 4.43-1.086 7.288-1.434l7.276 1.323zm-23.925 45.478l.425-2.906-1.56-.496c-1.87-1.35-3.437-3.19-5.126-4.96l-.024-2.835c.3-1.34.93-2.773 1.394-3.71-.897-.698-1.83-1.365-2.516-2.244l-3.13-5.09c-.88-1.297-2.124-2.096-3.603-2.575l2.54-10.88 6.142-7.087 7.126-4.3-.762 1.822c-.338-.06-.646-.172-1.11.001.022.613.09 1.64.35 2.244.79.782 1.6 1.45 1.674 2.35l1.05-1.145.63-2.14c1.15.654 1.594.78 2.467 1.465l2.47 1.97 2.268.756-1.984 1.736c-.973 1.078-2.15 2.307-3.933 3.236l-1.122-.024-.98 1.134-.85 1.878-2.197 1.725c-.6.548-1.054 1.286-1.18 2.114l-.012 3.154c-.69-.57-1.046-1.42-1.358-2.398l-.508-1.713c-.876-.907-2.006-1.74-3.236-2.457-1.036.316-1.784.66-2.54 1.04-.372.935-.5 1.745-.496 2.492.29 1.447.947 2.557 1.866 3.532.878.302 1.932-.034 2.47-.496l.45 1.973c-.74.226-1.15.572-1.382.886l-.024 1.772c.317.905.64 1.803 1.1 2.492.494.3 1.096.418 1.843.33l.378.543 5.764-.06c2.24.972 3.45 2.213 4.69 3.445l2.918 2.98c1.182.53 2.33.898 3.47 1.206 2.054.218 3.155.366 4.196.78l1.08 1.033.007 1.567-1.44.378-7.75 8.22c-1.78-.236-3.276-.365-5.315-.97a30.97 30.97 0 0 1-4.63-1.772z" fill="url(#A)" stroke="#ffc727" stroke-width="1.7" stroke-linejoin="round"/><circle r="26.222" cy="186.111" cx="131.347" fill="#fff" fill-opacity="0" stroke="#fff" stroke-width="3" paint-order="normal"/></g></svg></g></g></g></g><g data-cell-id="SrjY5U5Lp4LGjue5XJBE-7"><g id="cell-SrjY5U5Lp4LGjue5XJBE-7"><g transform="translate(0.5,0.5)"><path d="M 132.25 50 L 132.3 125 L 132.48 193.63" fill="none" stroke="#000000" stroke-miterlimit="10" pointer-events="stroke" style="stroke: light-dark(rgb(0, 0, 0), rgb(255, 255, 255));"/><path d="M 132.5 198.88 L 128.98 191.89 L 132.48 193.63 L 135.98 191.87 Z" fill="#000000" stroke="#000000" stroke-miterlimit="10" pointer-events="all" style="fill: light-dark(rgb(0, 0, 0), rgb(255, 255, 255)); stroke: light-dark(rgb(0, 0, 0), rgb(255, 255, 255));"/></g></g></g><g data-cell-id="SrjY5U5Lp4LGjue5XJBE-9"><g id="cell-SrjY5U5Lp4LGjue5XJBE-9"><g transform="translate(0.5,0.5)"><path d="M 132.6 240 L 132.6 320 L 132.51 393.63" fill="none" stroke="#000000" stroke-miterlimit="10" pointer-events="stroke" style="stroke: light-dark(rgb(0, 0, 0), rgb(255, 255, 255));"/><path d="M 132.5 398.88 L 129.01 391.88 L 132.51 393.63 L 136.01 391.89 Z" fill="#000000" stroke="#000000" stroke-miterlimit="10" pointer-events="all" style="fill: light-dark(rgb(0, 0, 0), rgb(255, 255, 255)); stroke: light-dark(rgb(0, 0, 0), rgb(255, 255, 255));"/></g></g></g></g></g></g></svg>